<?xml version="1.0" encoding="UTF-8"?>
<svg xmlns="http://www.w3.org/2000/svg" xmlns:xlink="http://www.w3.org/1999/xlink" width="0" height="0">
    <symbol id="arcticons_thunder" width="52" height="52" viewBox="0 0 52 52" fill="none">
        <path
            d="M18.0459 44.1512C20.8962 42.3583 22.8321 36.2624 19.1596 33.0644L10.5872 45.6343C9.89386 46.6483 10.2622 47.7295 12.4234 46.7231L20.3274 43.0343L33.7554 36.7835C34.1695 36.583 34.5401 36.303 34.846 35.9593C35.1519 35.6156 35.3871 35.2151 35.5382 34.7805C35.6893 34.3459 35.7533 33.8858 35.7266 33.4265C35.6999 32.9672 35.583 32.5176 35.3825 32.1035L35.376 32.0905L27.966 16.0842C27.0777 14.2545 28.4904 11.3663 31.0925 9.24406M33.9525 7.84873C31.1034 9.64164 29.1664 15.7376 32.8399 18.9356L41.4124 6.36564C42.1057 5.35164 41.7374 4.27048 39.5761 5.27689L31.6721 8.96565L18.2442 15.2165C17.83 15.4169 17.4594 15.697 17.1535 16.0407C16.8476 16.3843 16.6124 16.7849 16.4613 17.2195C16.3102 17.6541 16.2462 18.1141 16.2729 18.5735C16.2996 19.0328 16.4166 19.4823 16.617 19.8965L16.6235 19.9095L24.0335 35.9157C24.9219 37.7455 23.5092 40.6336 20.907 42.757"
            stroke="white"
            stroke-linecap="round"
            stroke-linejoin="round"
        />
    </symbol>

    <symbol id="bi_geo-alt-fill" width="20" height="20" viewBox="0 0 20 20" fill="none">
        <g clip-path="url(#clip0_129_2539)">
            <path
                d="M10 20C10 20 17.5 12.8925 17.5 7.5C17.5 5.51088 16.7098 3.60322 15.3033 2.1967C13.8968 0.790176 11.9891 0 10 0C8.01088 0 6.10322 0.790176 4.6967 2.1967C3.29018 3.60322 2.5 5.51088 2.5 7.5C2.5 12.8925 10 20 10 20ZM10 11.25C9.00544 11.25 8.05161 10.8549 7.34835 10.1517C6.64509 9.44839 6.25 8.49456 6.25 7.5C6.25 6.50544 6.64509 5.55161 7.34835 4.84835C8.05161 4.14509 9.00544 3.75 10 3.75C10.9946 3.75 11.9484 4.14509 12.6517 4.84835C13.3549 5.55161 13.75 6.50544 13.75 7.5C13.75 8.49456 13.3549 9.44839 12.6517 10.1517C11.9484 10.8549 10.9946 11.25 10 11.25Z"
                fill="#82C43C"
            />
        </g>
        <defs>
            <clipPath>
                <rect width="20" height="20" fill="white" />
            </clipPath>
        </defs>
    </symbol>

    <symbol id="game-icons_corporal" width="52" height="52" viewBox="0 0 52 52" fill="none">
        <path
            d="M25.9978 9.45575C22.9917 14.2979 16.3905 22.2076 10.7656 26.1625V31.5343C16.1599 27.5815 21.4412 22.136 25.0413 16.7356L26 15.2977L26.9587 16.7359C30.5473 22.1187 35.8925 27.5315 41.2344 31.5101V26.1687C35.5073 22.2141 28.9805 14.2914 25.9978 9.45575ZM25.9978 20.4654C22.9917 25.3076 16.3906 33.2176 10.7656 37.1729V42.5442C16.1599 38.5914 21.4412 33.1459 25.0413 27.7455L26 26.3077L26.9587 27.7456C30.5473 33.1284 35.8925 38.5415 41.2344 42.5202V37.1787C35.5073 33.2241 28.9805 25.3012 25.9978 20.4655V20.4654Z"
            fill="white"
        />
    </symbol>

    <symbol id="healthicons_dhis2-logo" width="52" height="52" viewBox="0 0 52 52" fill="none">
        <path
            d="M27.0386 16.5761L37.1451 22.9732L35.2601 24.3447L25.9185 18.4318L16.6679 24.3425L14.7959 22.9667L24.7918 16.5815C25.1267 16.3661 25.5163 16.2511 25.9144 16.2501C26.3126 16.2492 26.7027 16.3623 27.0386 16.5761Z"
            fill="white"
        />
        <path
            fill-rule="evenodd"
            clip-rule="evenodd"
            d="M7.40441 22.6558C6.14991 21.7349 6.21058 19.786 7.51924 18.9508L24.7919 7.91378C25.1268 7.69836 25.5164 7.58336 25.9145 7.5824C26.3127 7.58144 26.7028 7.69456 27.0387 7.90836L44.4728 18.9443C45.7912 19.7784 45.8519 21.7393 44.5866 22.6601L27.1547 35.3459C26.4115 35.8876 25.4202 35.8844 24.6782 35.3405L7.40441 22.6558ZM8.68599 20.7751L25.9186 9.76519L43.3137 20.7762L43.3191 20.7794L43.3202 20.7827C43.3285 20.7999 43.333 20.8188 43.3332 20.8379C43.334 20.8584 43.3303 20.8787 43.3223 20.8975C43.3223 20.8995 43.3215 20.9014 43.3202 20.9029L43.3126 20.9094L25.9197 33.5639L8.68708 20.9094C8.68429 20.9076 8.68174 20.9054 8.67949 20.9029L8.67624 20.8964C8.66874 20.8779 8.66542 20.8579 8.66649 20.8379C8.6667 20.8188 8.67114 20.7999 8.67949 20.7827L8.68057 20.7794L8.68599 20.7751Z"
            fill="white"
        />
        <path
            d="M8.92324 26.7194L10.7952 28.0952L8.68599 29.4418C8.68406 29.4431 8.68225 29.4446 8.68057 29.4462L8.67949 29.4494C8.6713 29.4663 8.66686 29.4848 8.66649 29.5036C8.66526 29.5255 8.66935 29.5475 8.67841 29.5675C8.67873 29.5682 8.67909 29.569 8.67949 29.5697L8.68708 29.5762L25.9197 42.2306L43.3126 29.5762L43.3202 29.5697L43.3212 29.5675L43.3234 29.5642C43.331 29.5453 43.3344 29.525 43.3332 29.5047C43.333 29.4855 43.3285 29.4666 43.3202 29.4494L43.3191 29.4462L43.3137 29.4429L41.1687 28.0844L43.0537 26.714L44.4728 27.6121C45.7912 28.4462 45.8519 30.4071 44.5866 31.3279L27.1547 44.0127C26.4115 44.5543 25.4202 44.5511 24.6782 44.0072L7.40441 31.3214C6.14991 30.4006 6.21058 28.4527 7.51924 27.6164L8.92324 26.7194Z"
            fill="white"
        />
    </symbol>

    <symbol id="ion_logo-sass" width="52" height="52" viewBox="0 0 52 52" fill="none">
        <g clip-path="url(#clip0_129_2392)">
            <path
                d="M51.9776 33.3196C51.8283 32.109 51.2149 31.0588 50.1495 30.1945C50.1362 30.1784 50.1216 30.1634 50.1058 30.1498L50.052 30.1112L50.0347 30.099L49.469 29.6928L49.4497 29.6786L49.3776 29.6278C49.3511 29.6124 49.3228 29.6004 49.2933 29.5922C47.5038 28.5269 44.5412 27.7804 40.0085 29.38C38.9268 27.56 38.8039 26.1015 39.5281 23.8672C39.6571 23.4782 39.5372 23.2212 39.1513 23.0547C38.3753 22.7246 37.313 22.8932 36.5594 23.0922C36.208 23.1836 35.9967 23.3827 35.9297 23.6844C35.4524 25.9187 34.065 27.9601 32.7234 29.9304L32.6442 30.0462C31.8174 28.2933 31.9891 26.9354 32.5649 25.2342C32.6797 24.895 32.5893 24.6695 32.2714 24.5009C31.3838 24.0429 30.0523 24.3577 29.5221 24.5141C28.8498 24.7101 28.1287 26.5271 27.3233 28.7026C27.1202 29.25 26.9455 29.7182 26.8409 29.9365C26.5921 30.4444 26.3544 31.0233 26.1025 31.6377C25.5338 33.0281 24.8929 34.5932 23.9768 35.5763C23.6437 34.84 24.1678 33.6791 24.6766 32.5528C25.2788 31.2213 25.8476 29.9629 25.1925 29.1596C25.0889 29.0326 24.9604 28.9281 24.8149 28.8527C24.6694 28.7772 24.51 28.7323 24.3465 28.7208C24.1332 28.7046 23.9191 28.7394 23.7219 28.8224C23.7899 28.2486 23.793 27.7956 23.6254 27.2482C23.3857 26.4672 22.7631 26.0294 21.906 26.0528C19.9539 26.1097 18.3025 27.564 17.2595 28.7747C16.5648 29.5872 15.0251 30.2067 13.6733 30.7501C13.1391 30.9765 12.6313 31.1797 12.2078 31.3828C11.5324 30.812 10.6742 30.2361 9.77025 29.6278C7.23119 27.9236 4.35392 25.9908 4.25439 23.3705C4.11221 19.5 8.52002 16.7547 12.3672 14.7956C15.2831 13.3128 17.8181 12.3297 20.1174 11.7924C23.3471 11.0378 26.0751 11.1901 28.2242 12.2433C29.4003 12.8192 29.9507 14.0715 29.6013 15.3593C28.6873 18.7058 24.9 20.999 21.6612 22.0309C19.7102 22.6525 18.0496 22.9125 16.5831 22.8272C14.7448 22.7205 13.2437 21.7983 12.6018 21.4053C12.499 21.3351 12.3902 21.2739 12.2768 21.2225L12.2474 21.2154C12.1892 21.2009 12.1283 21.2027 12.0711 21.2206C12.014 21.2386 11.9628 21.2719 11.9234 21.3169C11.7913 21.4744 11.8381 21.7232 11.8858 21.8491C12.5104 23.4812 13.8003 24.5121 15.7188 24.9133C16.3466 25.039 16.9858 25.0999 17.6261 25.0951C22.1162 25.0951 27.8453 22.5062 29.9497 20.3744C31.3848 18.9221 32.4299 17.4291 32.8625 14.8545C33.3145 12.158 31.4863 10.2842 29.6237 9.42092C25.097 7.33178 19.956 8.15748 16.4399 9.21779C12.3266 10.4579 8.07111 12.7126 4.76627 15.406C0.691581 18.724 -0.781076 21.8044 0.386893 24.572C1.58635 27.4086 4.51135 29.1829 7.33986 30.8994C8.25392 31.4529 9.1233 31.98 9.90635 32.5244C9.67072 32.6391 9.43002 32.7559 9.18525 32.8727C6.81072 34.0234 4.11728 35.3183 2.6233 37.4583C1.53861 39.0172 1.33549 40.5691 2.02002 42.0712C2.38564 42.8705 3.03564 43.4129 3.93853 43.683C4.40821 43.8161 4.89462 43.8807 5.38275 43.875C7.1408 43.875 9.07557 43.164 10.1288 42.5069C11.9894 41.339 13.1949 39.7708 13.7129 37.8462C14.174 36.1339 14.0633 34.4327 13.393 32.9144L15.6731 31.7647C14.5731 35.4209 15.4161 37.6045 16.3424 38.809C16.6836 39.2529 17.2991 39.52 17.9867 39.5322C18.6742 39.5443 19.307 39.2854 19.6645 38.8446C20.3409 38.0067 20.8406 37.0266 21.3006 36.0465C21.2763 36.6864 21.3067 37.3344 21.5251 37.8838C21.7211 38.3784 22.0441 38.7065 22.4605 38.8324C22.9033 38.9675 23.4223 38.8537 23.922 38.5125C26.1736 36.9718 27.7133 33.2739 28.9503 30.3011C29.126 29.8786 29.2946 29.4724 29.4581 29.0926C29.7642 30.1878 30.1899 31.246 30.7277 32.2481C30.8475 32.4654 30.8374 32.5609 30.6749 32.7397C30.4301 33.0078 30.0888 33.3318 29.7273 33.6751C28.6324 34.714 27.2695 36.011 27.0867 37.1515C27.0156 37.6086 27.3304 38.025 27.8189 38.1194C29.2885 38.4119 31.0588 37.9843 32.5558 36.9768C33.9167 36.0628 34.4286 34.7882 34.0792 33.1997C33.741 31.6702 34.5129 29.771 36.3735 27.5508C36.6782 28.8234 37.0845 29.8522 37.6451 30.7531L37.6299 30.7653C36.275 31.9485 34.4185 33.5684 34.7069 35.5336C34.7311 35.7205 34.794 35.9003 34.8916 36.0616C34.9891 36.2228 35.1193 36.3619 35.2736 36.4701C35.4386 36.5814 35.6248 36.6575 35.8205 36.6935C36.0163 36.7295 36.2173 36.7247 36.4111 36.6793C38.1854 36.3065 39.521 35.556 40.4919 34.387C41.4628 33.218 41.1084 31.9221 40.7813 30.9166C43.3204 30.228 45.5812 30.2453 47.6978 30.9674C48.886 31.3736 49.7381 32.0409 50.2297 32.9621C50.8482 34.1209 50.5141 35.1904 49.2862 35.9734C48.9094 36.2141 48.7276 36.3614 48.7164 36.5472C48.7139 36.5904 48.7219 36.6335 48.7395 36.6729C48.7572 36.7123 48.7841 36.7469 48.818 36.7737C48.9602 36.8905 49.3989 37.0936 50.3912 36.469C51.3053 35.8952 51.8415 35.1142 51.9786 34.1331C52.0062 33.8626 52.0059 33.59 51.9776 33.3196ZM11.38 35.8647L11.3699 35.9947C11.2114 37.4816 10.4558 38.7776 9.12025 39.8541C8.28135 40.5305 7.37033 40.9459 6.5558 41.0251C5.98705 41.08 5.57369 41.0028 5.32791 40.7946C5.14408 40.6392 5.04557 40.4066 5.02322 40.0836C4.85666 37.4958 8.9151 34.9243 11.1992 34.0783C11.3622 34.6588 11.4234 35.2633 11.38 35.8647ZM21.7749 28.5665C21.3992 30.7084 20.3033 34.7516 18.5808 36.3208C18.4985 36.3959 18.4295 36.4223 18.398 36.4152C18.3665 36.4081 18.3421 36.3705 18.3167 36.3136C17.7419 34.9811 17.9542 32.7305 18.8245 30.9623C19.4938 29.5993 20.4495 28.6965 21.518 28.4233C21.5623 28.411 21.6081 28.4045 21.6541 28.404C21.6901 28.4014 21.7258 28.4111 21.7556 28.4314C21.7682 28.4513 21.7764 28.4736 21.7798 28.4969C21.7831 28.5201 21.7814 28.5439 21.7749 28.5665ZM30.2544 36.3746C29.9304 36.7128 29.4866 36.6671 29.5912 36.5432L31.2406 34.7922C31.1075 35.3945 30.7145 35.8932 30.2544 36.3746ZM37.0967 34.8603C36.9398 34.9376 36.7701 34.9854 36.596 35.0015C36.5492 34.0803 37.442 33.0433 38.3225 32.3517C38.5592 33.3125 38.0747 34.3281 37.0967 34.8603Z"
                fill="white"
            />
        </g>
        <defs>
            <clipPath>
                <rect width="52" height="52" fill="white" />
            </clipPath>
        </defs>
    </symbol>

    <symbol id="ph_meta-logo-light" width="52" height="52" viewBox="0 0 52 52" fill="none">
        <path
            d="M48.3438 30.3286C48.3438 33.5278 47.7202 36.2537 46.54 38.2119C45.108 40.5884 42.8838 41.8438 40.105 41.8438C34.6734 41.8438 30.7003 34.4277 26.4956 26.5748C22.9816 20.022 19.0023 12.5938 15.0312 12.5938C10.3025 12.5938 6.09375 22.5123 6.09375 30.3286C6.09375 33.085 6.5975 35.3742 7.54813 36.9545C8.54344 38.6039 9.96531 39.4062 11.895 39.4062C15.1775 39.4062 18.458 34.3159 21.2388 29.3373C21.4091 29.0825 21.6692 28.9012 21.9673 28.8296C22.2654 28.758 22.5795 28.8013 22.847 28.951C23.1145 29.1006 23.3158 29.3456 23.4108 29.637C23.5058 29.9285 23.4874 30.2451 23.3594 30.5236C20.3125 35.9998 16.6562 41.8438 11.895 41.8438C9.11828 41.8438 6.89203 40.5884 5.46 38.2119C4.27984 36.2537 3.65625 33.5278 3.65625 30.3286C3.65625 22.1041 8.08641 10.1562 15.0312 10.1562C20.4628 10.1562 24.4359 17.5723 28.6406 25.4252C32.1527 31.978 36.1319 39.4062 40.105 39.4062C42.0347 39.4062 43.4566 38.6039 44.4519 36.9545C45.4025 35.3742 45.9062 33.085 45.9062 30.3286C45.9062 22.5123 41.6995 12.5938 36.9688 12.5938C35.1406 12.5938 33.1277 14.17 30.8466 17.4139C30.6604 17.6784 30.3769 17.8582 30.0582 17.9136C29.7395 17.969 29.4119 17.8956 29.1474 17.7095C28.8829 17.5233 28.7032 17.2397 28.6477 16.9211C28.5923 16.6024 28.6657 16.2748 28.8519 16.0103C30.6211 13.4977 33.3877 10.1562 36.9688 10.1562C43.9136 10.1562 48.3438 22.1041 48.3438 30.3286Z"
            fill="white"
        />
    </symbol>

    <symbol id="system-uicons_diamond" width="52" height="52" viewBox="0 0 52 52" fill="none">
        <path
            d="M45.8095 19.8095L38.3809 9.90479H13.6413L6.19043 19.8095M45.8095 19.8095L26 44.5715M45.8095 19.8095H6.19043M26 44.5715L6.19043 19.8095M26 44.5715L18.5714 19.8095M26 44.5715L33.4285 19.8095"
            stroke="white"
            stroke-linecap="round"
            stroke-linejoin="round"
        />
        <path d="M13.6411 9.90479L18.5712 19.8095L25.9998 9.90479L33.4284 19.8095L38.3807 9.90479" stroke="white" stroke-linecap="round" stroke-linejoin="round" />
    </symbol>
</svg>
